<svg xmlns="http://www.w3.org/2000/svg" width="960" height="640" viewBox="0 0 960 640" role="img" aria-label="皮肤检测与视觉分析插画">
  <defs>
    <linearGradient id="bg" x1="0" y1="0" x2="1" y2="1"><stop stop-color="#eef6f7"/><stop offset=".55" stop-color="#ffffff"/><stop offset="1" stop-color="#e8f0ea"/></linearGradient>
    <linearGradient id="scan" x1="0" y1="0" x2="1" y2="1"><stop stop-color="#4F7D8A"/><stop offset="1" stop-color="#9bc7b0"/></linearGradient>
    <filter id="s" x="-20%" y="-20%" width="140%" height="140%"><feDropShadow dx="0" dy="24" stdDeviation="24" flood-color="#254a50" flood-opacity=".14"/></filter>
  </defs>
  <rect width="960" height="640" rx="64" fill="url(#bg)"/>
  <path d="M120 520 C240 456 330 470 430 522 S652 590 840 462" fill="none" stroke="#4F7D8A" stroke-width="3" opacity=".25"/>
  <g filter="url(#s)">
    <rect x="170" y="110" width="620" height="420" rx="48" fill="white"/>
    <rect x="220" y="160" width="270" height="300" rx="34" fill="#f1f6f2"/>
    <circle cx="355" cy="310" r="86" fill="#f0d5bf"/>
    <path d="M317 316 C324 270 390 258 408 312 C392 356 337 368 317 316Z" fill="#bd795d" opacity=".45"/>
    <rect x="245" y="190" width="220" height="240" rx="28" fill="none" stroke="#4F7D8A" stroke-width="4" stroke-dasharray="14 12"/>
    <rect x="245" y="300" width="220" height="7" rx="3.5" fill="url(#scan)" opacity=".78"/>
    <rect x="535" y="176" width="190" height="20" rx="10" fill="#dcecef"/>
    <rect x="535" y="228" width="160" height="14" rx="7" fill="#edf5f6"/>
    <rect x="535" y="262" width="118" height="14" rx="7" fill="#edf5f6"/>
    <rect x="535" y="330" width="200" height="86" rx="24" fill="#f7faf5" stroke="#dfe9e4"/>
    <circle cx="576" cy="373" r="18" fill="#4F7D8A" opacity=".88"/>
    <rect x="612" y="356" width="84" height="12" rx="6" fill="#cfe1dc"/>
    <rect x="612" y="382" width="58" height="10" rx="5" fill="#e5eee9"/>
  </g>
</svg>